<svg width="46" height="51" viewBox="0 0 46 51" fill="none" xmlns="http://www.w3.org/2000/svg">
<path d="M43.35 4.29448e-07C43.0151 -0.000190641 42.6834 0.0656365 42.3739 0.193718C42.0645 0.3218 41.7833 0.509624 41.5464 0.746452C41.3096 0.983279 41.1218 1.26446 40.9937 1.57393C40.8656 1.8834 40.7998 2.21508 40.8 2.55V4.17364C38.6493 6.84018 35.9312 8.99363 32.8433 10.4772C29.7555 11.9608 26.3757 12.7373 22.95 12.75H7.65C5.62177 12.7522 3.67725 13.5589 2.24308 14.9931C0.808905 16.4272 0.0022139 18.3718 0 20.4V25.5C0.0022139 27.5282 0.808905 29.4727 2.24308 30.9069C3.67725 32.3411 5.62177 33.1478 7.65 33.15H8.88366L2.7567 47.4463C2.5902 47.8341 2.5226 48.2571 2.55998 48.6774C2.59735 49.0978 2.73853 49.5022 2.97083 49.8545C3.20313 50.2068 3.51929 50.4959 3.89092 50.6959C4.26255 50.8958 4.67801 51.0003 5.1 51H15.3C15.7992 51.0003 16.2874 50.8539 16.704 50.5789C17.1207 50.304 17.4473 49.9126 17.6433 49.4536L24.5889 33.2469C27.727 33.4773 30.7846 34.3486 33.5728 35.8069C36.3611 37.2652 38.8208 39.2797 40.8 41.7258V43.35C40.8 44.0263 41.0687 44.6749 41.5469 45.1531C42.0251 45.6313 42.6737 45.9 43.35 45.9C44.0263 45.9 44.6749 45.6313 45.1531 45.1531C45.6313 44.6749 45.9 44.0263 45.9 43.35V2.55C45.9002 2.21507 45.8344 1.8834 45.7063 1.57393C45.5782 1.26446 45.3904 0.983273 45.1535 0.746444C44.9167 0.509616 44.6355 0.321792 44.3261 0.193712C44.0166 0.065631 43.6849 -0.000193996 43.35 4.29448e-07ZM7.65 28.05C6.97384 28.0495 6.3255 27.7807 5.84738 27.3026C5.36926 26.8245 5.10045 26.1762 5.1 25.5V20.4C5.10046 19.7238 5.36927 19.0755 5.84738 18.5974C6.3255 18.1193 6.97384 17.8505 7.65 17.85H10.2V28.05H7.65ZM13.6191 45.9H8.96733L14.4309 33.15H19.0827L13.6191 45.9ZM40.8 34.4806C35.7721 30.3384 29.4644 28.066 22.95 28.0499H15.3V17.8499H22.95C29.4645 17.8332 35.7721 15.5604 40.8 11.4179V34.4806Z" fill="#0B75FF"/>
</svg>
