<svg width="51" height="51" viewBox="0 0 51 51" fill="none" xmlns="http://www.w3.org/2000/svg">
<path d="M1.25173 17.6454L23.765 30.653C24.1453 30.8726 24.5767 30.9882 25.0158 30.9882C25.4549 30.9882 25.8862 30.8726 26.2665 30.653L48.7798 17.6454C49.1579 17.4271 49.4722 17.1137 49.6917 16.7363C49.9111 16.3589 50.0279 15.9306 50.0305 15.4941C50.0323 15.0533 49.9175 14.6199 49.6979 14.2377C49.4783 13.8555 49.1615 13.5382 48.7798 13.3178L26.2665 0.335135C25.8862 0.115584 25.4549 0 25.0158 0C24.5767 0 24.1453 0.115584 23.765 0.335135L1.25173 13.3178C0.869995 13.5382 0.553272 13.8555 0.333634 14.2377C0.113996 14.6199 -0.000757588 15.0533 0.000992364 15.4941C0.00362735 15.9306 0.12046 16.3589 0.339879 16.7363C0.559298 17.1137 0.873663 17.4271 1.25173 17.6454ZM25.0158 5.48818L42.5261 15.4941L25.0158 25.5L7.50542 15.4941L25.0158 5.48818ZM46.2783 23.4238L25.0158 35.5059L3.75321 23.3237C3.46771 23.1583 3.1523 23.051 2.82516 23.0081C2.49802 22.9651 2.16561 22.9872 1.84707 23.0733C1.52854 23.1593 1.23016 23.3075 0.969141 23.5093C0.70812 23.7111 0.489606 23.9626 0.326185 24.2493C6.08699e-05 24.8236 -0.0856554 25.5037 0.0877391 26.141C0.261134 26.7784 0.679564 27.3213 1.25173 27.6513L23.765 40.659C24.1453 40.8785 24.5767 40.9941 25.0158 40.9941C25.4549 40.9941 25.8862 40.8785 26.2665 40.659L48.7798 27.6513C49.352 27.3213 49.7704 26.7784 49.9438 26.141C50.1172 25.5037 50.0315 24.8236 49.7054 24.2493C49.5419 23.9626 49.3234 23.7111 49.0624 23.5093C48.8014 23.3075 48.503 23.1593 48.1845 23.0733C47.8659 22.9872 47.5335 22.9651 47.2064 23.0081C46.8792 23.051 46.5638 23.1583 46.2783 23.3237V23.4238ZM46.2783 33.4297L25.0158 45.5118L3.75321 33.3296C3.46771 33.1642 3.1523 33.0569 2.82516 33.014C2.49802 32.971 2.16561 32.9931 1.84707 33.0792C1.52854 33.1652 1.23016 33.3134 0.969141 33.5152C0.70812 33.7171 0.489606 33.9685 0.326185 34.2552C6.08699e-05 34.8296 -0.0856554 35.5096 0.0877391 36.1469C0.261134 36.7843 0.679564 37.3272 1.25173 37.6572L23.765 50.6649C24.1453 50.8844 24.5767 51 25.0158 51C25.4549 51 25.8862 50.8844 26.2665 50.6649L48.7798 37.6572C49.352 37.3272 49.7704 36.7843 49.9438 36.1469C50.1172 35.5096 50.0315 34.8296 49.7054 34.2552C49.5419 33.9685 49.3234 33.7171 49.0624 33.5152C48.8014 33.3134 48.503 33.1652 48.1845 33.0792C47.8659 32.9931 47.5335 32.971 47.2064 33.014C46.8792 33.0569 46.5638 33.1642 46.2783 33.3296V33.4297Z" fill="#0B75FF"/>
</svg>
